<svg width="1313" height="715" viewBox="0 0 1313 715" fill="none" xmlns="http://www.w3.org/2000/svg">
<rect width="1313" height="715" fill="white"/>
<path d="M700.78 474.806C668.612 483.008 635.499 486.917 602.305 486.433C534.406 486.433 455.884 452.125 455.884 355.803C455.884 259.481 523.496 223.02 616.947 223.02C643.034 222.689 669.007 226.518 693.89 234.36L688.435 289.914C669.396 279.236 647.962 273.557 626.134 273.406C571.011 273.406 525.649 296.374 525.649 355.947C525.649 405.902 561.106 436.191 610.631 436.191C618.882 436.45 627.096 434.983 634.747 431.885V380.924H595.415V333.266H700.78V474.806Z" fill="#222221"/>
<path d="M725.615 227.472H797.39L854.379 427.437H855.814L913.234 227.472H982.999L894.86 482.129H811.027L725.615 227.472Z" fill="#222221"/>
<path d="M1012 227.472H1128.56C1175.93 227.472 1211.39 248.287 1211.39 292.069C1212.19 305.7 1208.1 319.169 1199.87 330.06C1191.63 340.952 1179.79 348.553 1166.46 351.499V352.217C1200.48 359.107 1217.99 377.338 1217.99 408.488C1217.99 469.497 1164.3 482.273 1118.65 482.273H1012V227.472ZM1079.89 327.957H1098.84C1121.09 327.957 1144.06 322.502 1144.06 300.969C1144.06 279.437 1122.24 275.561 1099.85 275.561H1079.89V327.957ZM1079.89 433.753H1099.85C1124.68 433.753 1150.52 430.164 1150.52 404.182C1150.52 378.199 1123.82 373.893 1100.57 373.893H1079.89V433.753Z" fill="#222221"/>
<path d="M226.348 361.118H95V492.466H226.348V361.118Z" fill="#E30613"/>
<path d="M95 326.665H260.656V492.464H360.136V227.185H95V326.665Z" fill="#EF7D00"/>
</svg>
